<svg width="18" height="16" viewBox="0 0 18 16" fill="none" xmlns="http://www.w3.org/2000/svg">
<path d="M11.8952 15.817C11.5993 13.7085 11.1063 11.7949 10.4124 9.98604C8.71377 10.8095 6.81394 12.2485 4.20164 14.8144C3.74459 14.4919 3.32143 14.1246 2.93855 13.719C5.68219 11.0133 7.77769 9.39562 9.76344 8.44887C9.50869 7.89662 9.23402 7.3522 8.93919 6.81278C6.60129 7.54962 3.93559 7.93787 0.666687 7.99337C0.667145 7.42137 0.725254 6.86278 0.835504 6.32318C3.72045 6.26137 6.0542 5.92746 8.0741 5.334C7.13654 3.82958 6.03765 2.34462 4.77477 0.816001C5.2672 0.525768 5.79207 0.284718 6.34264 0.0996094C7.61702 1.66591 8.7336 3.20534 9.68977 4.77966C11.4862 4.06962 13.0784 3.11131 14.6679 1.89123C15.0764 2.27043 15.4469 2.69011 15.7728 3.14388C14.1196 4.42263 12.4338 5.45905 10.5244 6.24035C10.8054 6.76512 11.0689 7.2957 11.3152 7.8342C13.204 7.23579 15.0633 7.17395 17.2923 7.16762C17.3194 7.44145 17.3334 7.71928 17.3334 8.00028C17.3334 8.28187 17.3194 8.5602 17.2921 8.83462C15.1385 8.84228 13.5414 8.90295 11.9641 9.37778C12.6414 11.1407 13.1424 13.0045 13.464 15.0384C12.9735 15.3501 12.4482 15.612 11.8952 15.817Z" fill="#777E91"/>
</svg>
