<svg width="80" height="80" viewBox="0 0 80 80" fill="none" xmlns="http://www.w3.org/2000/svg">
<path d="M0 12.8C0 8.31958 0 6.07937 0.871948 4.36808C1.63893 2.86278 2.86278 1.63893 4.36808 0.871948C6.07937 0 8.31958 0 12.8 0H48C59.201 0 64.8016 0 69.0798 2.17987C72.843 4.09734 75.9027 7.15695 77.8201 10.9202C80 15.1984 80 20.799 80 32V67.2C80 71.6804 80 73.9206 79.1281 75.6319C78.3611 77.1372 77.1372 78.3611 75.6319 79.1281C73.9206 80 71.6804 80 67.2 80H12.8C8.31958 80 6.07937 80 4.36808 79.1281C2.86278 78.3611 1.63893 77.1372 0.871948 75.6319C0 73.9206 0 71.6804 0 67.2V12.8Z" fill="#F23849"/>
<path d="M56.902 58.5186C56.3769 58.3944 55.8513 58.7205 55.7278 59.2456L54.657 63.7996C54.5335 64.3246 54.8591 64.8504 55.3841 64.9737C55.4593 64.9915 55.5345 64.9999 55.6085 64.9999C56.0514 64.9999 56.4525 64.6966 56.5583 64.2467L57.6291 59.6927C57.7525 59.1677 57.427 58.6419 56.902 58.5186Z" fill="white"/>
<path d="M52.9341 24.6935C52.9341 22.1782 53.6428 19.7237 54.9835 17.5953L55.6753 16.4972C55.9627 16.0409 55.8259 15.438 55.3695 15.1505C54.9131 14.8629 54.3103 14.9999 54.0228 15.4562L53.331 16.5543C51.7936 18.9948 50.981 21.8093 50.981 24.6935C50.981 27.7737 51.7937 30.7738 53.3376 33.4235H26.6596C28.2037 30.7738 29.0163 27.7736 29.0163 24.6935C29.0163 21.8093 28.2037 18.9949 26.6663 16.5543L25.9745 15.4562C25.687 14.9999 25.0842 14.8629 24.6277 15.1505C24.1714 15.438 24.0345 16.0409 24.322 16.4972L25.0137 17.5953C26.3545 19.7237 27.0631 22.1782 27.0631 24.6935C27.0631 27.6817 26.2018 30.5851 24.5722 33.09C21.751 37.4268 20.2598 42.4538 20.2598 47.6275C20.2598 49.6792 20.4979 51.7321 20.9675 53.7295L23.4404 64.2468C23.5462 64.6966 23.9471 65 24.3902 65C24.4642 65 24.5394 64.9915 24.6146 64.9738C25.1396 64.8504 25.4652 64.3247 25.3417 63.7997L22.8687 53.2825C22.4336 51.4315 22.2129 49.5289 22.2129 47.6276C22.2129 46.2356 22.3302 44.8553 22.5595 43.4986L36.8612 52.4548V64.0233C36.8612 64.5626 37.2985 64.9999 37.8378 64.9999C38.377 64.9999 38.8144 64.5626 38.8144 64.0233V52.8906H41.1829V64.0233C41.1829 64.5626 41.6202 64.9999 42.1595 64.9999C42.6987 64.9999 43.136 64.5626 43.136 64.0233V52.4548L57.4378 43.4986C57.6671 44.8553 57.7844 46.2356 57.7844 47.6276C57.7844 48.6714 57.7172 49.7253 57.585 50.7602C57.5165 51.2953 57.8947 51.7843 58.4297 51.8528C58.4718 51.8583 58.5135 51.8608 58.5548 51.8608C59.0389 51.8608 59.4592 51.5009 59.5221 51.0081C59.665 49.8912 59.7374 48.754 59.7374 47.6277C59.7374 42.454 58.2461 37.427 55.4249 33.0902C53.7954 30.5851 52.9341 27.6816 52.9341 24.6935ZM41.8789 50.9375H38.1185L22.9916 41.4646C23.5379 39.342 24.3676 37.2961 25.4646 35.3767H54.5327C55.6299 37.2962 56.4595 39.342 57.0058 41.4646L41.8789 50.9375Z" fill="white"/>
<path d="M64.0234 23.2528H58.6175L59.1309 22.7394C59.5123 22.358 59.5123 21.7396 59.1309 21.3582C58.7495 20.977 58.1313 20.977 57.7498 21.3582L55.5692 23.5388C55.1879 23.9201 55.1879 24.5385 55.5692 24.9199L57.7498 27.1005C57.9405 27.2911 58.1904 27.3865 58.4403 27.3865C58.6902 27.3865 58.9401 27.2911 59.1308 27.1005C59.5122 26.7192 59.5122 26.1008 59.1308 25.7193L58.6174 25.2059H64.0233C64.5626 25.2059 64.9999 24.7686 64.9999 24.2293C64.9999 23.69 64.5627 23.2528 64.0234 23.2528Z" fill="white"/>
<path d="M20.8692 25.7194C20.4878 26.1008 20.4878 26.7192 20.8692 27.1006C21.0599 27.2912 21.3098 27.3866 21.5597 27.3866C21.8096 27.3866 22.0595 27.2912 22.2502 27.1006L24.4308 24.92C24.8121 24.5387 24.8121 23.9203 24.4308 23.5389L22.2502 21.3582C21.8688 20.977 21.2506 20.977 20.8691 21.3582C20.4877 21.7396 20.4877 22.3579 20.8691 22.7394L21.3825 23.2528H15.9766C15.4373 23.2528 15 23.6901 15 24.2294C15 24.7687 15.4373 25.206 15.9766 25.206H21.3825L20.8692 25.7194Z" fill="white"/>
<path d="M40.0001 29.2578C40.2569 29.2578 40.5089 29.1534 40.6904 28.9716C40.872 28.7901 40.9766 28.5381 40.9766 28.2813C40.9766 28.0244 40.8721 27.7725 40.6904 27.5909C40.5089 27.4092 40.2569 27.3047 40.0001 27.3047C39.7432 27.3047 39.4913 27.4091 39.3096 27.5909C39.128 27.7725 39.0235 28.0244 39.0235 28.2813C39.0235 28.5381 39.1279 28.7901 39.3096 28.9716C39.4913 29.1534 39.7432 29.2578 40.0001 29.2578Z" fill="white"/>
<path d="M57.6836 54.2158C57.4258 54.2158 57.1748 54.3194 56.9932 54.5021C56.8105 54.6836 56.707 54.9355 56.707 55.1924C56.707 55.4493 56.8105 55.7002 56.9932 55.8828C57.1748 56.0645 57.4259 56.1689 57.6836 56.1689C57.9404 56.1689 58.1924 56.0646 58.3731 55.8828C58.5557 55.7002 58.6593 55.4493 58.6593 55.1924C58.6593 54.9355 58.5557 54.6836 58.3731 54.5021C58.1924 54.3194 57.9404 54.2158 57.6836 54.2158Z" fill="white"/>
</svg>
