<svg width="80" height="80" viewBox="0 0 80 80" fill="none" xmlns="http://www.w3.org/2000/svg">
<path d="M0 12.8C0 8.31958 0 6.07937 0.871948 4.36808C1.63893 2.86278 2.86278 1.63893 4.36808 0.871948C6.07937 0 8.31958 0 12.8 0H48C59.201 0 64.8016 0 69.0798 2.17987C72.843 4.09734 75.9027 7.15695 77.8201 10.9202C80 15.1984 80 20.799 80 32V67.2C80 71.6804 80 73.9206 79.1281 75.6319C78.3611 77.1372 77.1372 78.3611 75.6319 79.1281C73.9206 80 71.6804 80 67.2 80H12.8C8.31958 80 6.07937 80 4.36808 79.1281C2.86278 78.3611 1.63893 77.1372 0.871948 75.6319C0 73.9206 0 71.6804 0 67.2V12.8Z" fill="#F23849"/>
<path d="M19.5084 55.8471H22.2537C22.2562 55.8471 22.2578 55.8447 22.257 55.8424L20.5617 51.2086C20.537 51.1408 20.5118 51.074 20.4871 51.0082C20.2853 50.4716 20.0564 49.8634 20.3161 49.2834C20.47 48.9398 20.76 48.6868 21.1778 48.5311L23.8563 47.5334C23.8595 47.5322 23.8627 47.5315 23.8659 47.5303C23.8696 47.529 23.8731 47.5272 23.8768 47.526L28.2451 46.0462C28.312 46.0236 28.3539 46.006 28.3788 45.9939C28.3797 45.9936 28.3801 45.993 28.3804 45.9921C28.4021 45.9182 28.4292 45.7745 28.4502 45.6637L29.5204 40.0561C29.5204 40.0556 29.5204 40.0552 29.5204 40.0547L28.7205 35.9614C28.7201 35.9593 28.718 35.958 28.7159 35.9587L28.0803 36.1789C28.0788 36.1794 28.0779 36.1807 28.0779 36.1822V39.2177C28.0779 40.6931 26.9058 41.8966 25.467 41.9006H25.4533C24.7582 41.9006 24.0753 41.6131 23.5778 41.1104C23.0785 40.6058 22.8034 39.9396 22.8034 39.2346V34.1918C22.8034 34.182 22.8036 34.1723 22.804 34.1624C22.8467 33.0678 23.5626 32.0928 24.5873 31.7357L29.4819 30.0428C29.4825 30.0426 29.4832 30.0421 29.4836 30.0415L30.6854 28.2847C30.6865 28.2832 30.6861 28.281 30.6845 28.2799C29.7741 27.6483 29.0616 26.7288 28.5621 25.5338C28.5551 25.5169 28.5491 25.4998 28.5434 25.4826C28.5427 25.4805 28.5416 25.4787 28.5409 25.4767C28.5404 25.4749 28.5399 25.4732 28.5393 25.4714C28.5388 25.4698 28.5383 25.4682 28.5378 25.4667C27.8451 23.3345 27.7423 21.3756 28.2409 19.8012C28.7763 18.1102 29.9817 16.8853 31.7259 16.259C32.554 15.9607 33.3623 15.9677 34.2183 15.975C35.4326 15.9854 36.8106 15.9972 38.6295 15.0781C38.983 14.8993 39.4117 15.0374 39.5996 15.3898C40.4562 16.9955 40.2658 18.5015 39.0981 19.6235C39.0968 19.6246 39.0966 19.6265 39.0976 19.6279C39.8044 20.6557 40.188 21.8768 40.188 23.1398C40.188 25.1931 39.0089 27.195 37.1848 28.3475C37.1831 28.3485 37.1827 28.3507 37.1837 28.3524L39.0556 31.3309C39.0563 31.3319 39.0574 31.3325 39.0585 31.3326L40.6259 31.3407C40.6271 31.3407 40.6282 31.3401 40.6289 31.3391L42.4023 28.7216C43.2248 27.5088 44.8677 27.2005 46.0654 28.0344C46.6506 28.4434 47.0421 29.0618 47.1676 29.7761C47.2913 30.4795 47.1383 31.1845 46.7374 31.7611L43.9723 35.7382C43.9703 35.7412 43.968 35.7443 43.9659 35.7474C43.2007 36.8131 42.531 36.8153 41.5978 36.8184H39.38C39.3781 36.8184 39.3765 36.8199 39.3765 36.8219L39.3704 39.7399C39.3704 39.7409 39.3707 39.7418 39.3714 39.7425L42.5118 42.8583C42.512 42.8584 42.5121 42.8586 42.5123 42.8588C43.2774 43.6193 43.6653 44.5354 43.6653 45.5817V51.959C43.6653 51.9605 43.6663 51.9619 43.6678 51.9623C44.3769 52.1515 45.2278 52.5931 45.9192 53.3239C46.5876 54.0302 46.9893 54.891 47.1045 55.8443C47.1047 55.846 47.1062 55.8473 47.108 55.8473H50.1931C50.1951 55.8473 50.1966 55.8457 50.1966 55.8438V55.5369C50.1966 52.8055 52.2303 50.5484 54.8411 50.2407C54.8428 50.2405 54.8441 50.239 54.8441 50.2372V36.7553C54.8441 36.7526 54.8412 36.7508 54.8388 36.7522L53.4855 37.5322C53.0637 37.7751 52.5972 37.8905 52.1337 37.8905C51.2059 37.8904 50.2896 37.4281 49.7667 36.6C49.3752 35.985 49.2528 35.2605 49.4219 34.5599C49.5912 33.8591 50.0298 33.2739 50.6571 32.9126L60.8595 27.0334C62.1228 26.3058 63.7923 26.7227 64.5817 27.9636C64.9729 28.5801 65.0951 29.3052 64.9255 30.0054C64.756 30.7049 64.3176 31.2891 63.6908 31.6501L60.3685 33.5649C60.3675 33.5655 60.3668 33.5667 60.3668 33.568V40.8784C60.3668 41.2877 60.0563 41.6461 59.6536 41.6567C59.2403 41.6674 58.9019 41.3304 58.9019 40.9129V34.4163C58.9019 34.4136 58.899 34.4119 58.8967 34.4132L56.3104 35.9039C56.3093 35.9045 56.3087 35.9056 56.3087 35.9069V50.1999C56.3087 50.2019 56.3102 50.2035 56.3122 50.2035H58.8985C58.9005 50.2035 58.902 50.2019 58.902 50.1999V44.6039C58.902 44.1946 59.2125 43.8362 59.6152 43.8256C60.0285 43.8149 60.3669 44.1519 60.3669 44.5694V50.1998C60.3669 50.2018 60.3684 50.2034 60.3704 50.2034H62.8902C63.8165 50.2034 64.5674 50.9662 64.5674 51.9072V63.2972C64.5674 64.2377 63.8169 65 62.8912 65H50.9289H19.5084C17.0224 65 15 62.947 15 60.4235C15 57.9001 17.0225 55.8471 19.5084 55.8471ZM41.5993 35.3301C42.4354 35.3275 42.4541 35.3274 42.7791 34.8749L45.541 30.9024C45.7142 30.6532 45.7798 30.3461 45.7256 30.0375C45.6696 29.718 45.4955 29.442 45.2363 29.2611C44.7041 28.8903 43.9738 29.0271 43.6086 29.5652L41.6825 32.4084C41.429 32.7787 41.147 32.8298 40.8763 32.8298L39.3883 32.8222C39.3864 32.8222 39.3848 32.8238 39.3848 32.8258L39.3795 35.3266C39.3795 35.3285 39.3811 35.3301 39.383 35.3301H41.5993ZM63.5031 29.6499C63.5754 29.3513 63.5213 29.0388 63.3511 28.7707C63.1038 28.3821 62.6583 28.1628 62.2138 28.1628C61.9951 28.1628 61.7766 28.2159 61.5821 28.3279L51.3795 34.207C51.3795 34.207 51.3795 34.207 51.3794 34.2071C51.1065 34.3642 50.9165 34.6154 50.8443 34.9145C50.7723 35.2131 50.8262 35.5247 50.9978 35.7943C51.3643 36.3747 52.1727 36.5775 52.7626 36.2378L62.9681 30.3557C63.2411 30.1985 63.431 29.9479 63.5031 29.6499ZM21.6761 49.9427C21.7075 50.0844 21.7938 50.3135 21.8552 50.4771C21.8816 50.5475 21.9087 50.6192 21.9349 50.6911L23.8205 55.8448C23.821 55.8462 23.8224 55.8471 23.8238 55.8471H24.2619C24.3367 55.8471 24.4923 55.8471 24.6804 55.5692C25.1868 54.8209 25.2111 53.2176 25.0625 52.8134L25.0316 52.7348C25.0304 52.7318 25.0293 52.7287 25.0281 52.7258L23.6852 49.1857C23.6845 49.1839 23.6825 49.183 23.6807 49.1836L21.6849 49.927C21.6817 49.9329 21.6794 49.9369 21.6761 49.9427ZM28.7081 47.4581L25.071 48.6901C25.0692 48.6907 25.0682 48.6929 25.0689 48.6948L25.3688 49.4855L26.1399 51.5184C26.1405 51.5202 26.1425 51.521 26.1443 51.5205L32.609 49.2631C33.0482 49.1095 33.1613 48.9535 33.3135 48.6367L34.5598 46.0157C34.5606 46.014 34.56 46.012 34.5584 46.0111C33.4022 45.3736 31.6339 44.3639 30.5165 42.6856C30.5148 42.6831 30.5109 42.6839 30.5103 42.6869L29.8883 45.9459C29.7727 46.5574 29.6633 47.1349 28.7081 47.4581ZM30.4344 31.3523C30.3345 31.3523 30.2331 31.3655 30.1323 31.3927C30.1251 31.3947 30.1201 31.396 30.1149 31.3973C30.1142 31.3975 30.1136 31.3976 30.1129 31.3978C30.1101 31.3985 30.1074 31.3991 30.1036 31.3999C30.0924 31.403 30.081 31.4073 30.0699 31.4113C30.0662 31.4127 30.0625 31.414 30.0588 31.4153L25.0611 33.1438C24.6095 33.3012 24.2923 33.728 24.2683 34.2084V39.2346C24.2683 39.5406 24.39 39.8321 24.6109 40.0553C24.8358 40.2825 25.1423 40.4125 25.4549 40.4125C25.457 40.4125 25.459 40.4125 25.4611 40.4125C26.0963 40.4107 26.6131 39.8747 26.6131 39.2176V35.986C26.6131 35.9622 26.6116 35.9398 26.6107 35.9189C26.5752 35.2306 26.9822 34.986 27.227 34.9018L30.8122 33.6605C30.8124 33.6604 30.8127 33.6604 30.8129 33.6603C31.1074 33.5584 31.3458 33.3446 31.4842 33.0584C31.622 32.7733 31.6429 32.4531 31.5427 32.1554C31.3785 31.6664 30.9236 31.3523 30.4344 31.3523ZM38.582 16.7379C38.5814 16.7358 38.579 16.7347 38.5771 16.7355C36.7839 17.4848 35.3692 17.473 34.2059 17.4628C33.4512 17.4565 32.7999 17.4509 32.2146 17.6616C29.6474 18.5835 29.251 20.8331 29.4399 22.7321C29.4402 22.7351 29.4439 22.7363 29.4458 22.734C29.6325 22.5201 29.8601 22.3187 30.137 22.1434C30.1373 22.1433 30.1375 22.143 30.1378 22.1428C30.9563 21.1299 32.1042 20.2099 33.6161 20.0931C34.8508 19.9981 36.5619 19.6312 37.6612 18.8864C37.6618 18.886 37.6623 18.8857 37.6629 18.8853C38.5454 18.2911 38.843 17.6124 38.582 16.7379ZM38.7231 23.1396C38.7231 22.1816 38.432 21.2544 37.8941 20.4744C37.892 20.4739 37.8907 20.4735 37.8886 20.473C36.2842 21.3176 34.3388 21.5298 33.7268 21.577C31.6321 21.7386 30.3828 24.368 30.0312 25.2213C30.0308 25.2222 30.0309 25.2232 30.0313 25.2241C30.5113 26.2373 31.1908 26.9574 32.0559 27.3674C32.6465 27.6496 33.346 27.7927 34.135 27.7927C34.6879 27.7927 35.2766 27.656 35.8365 27.3977C37.2734 26.7324 38.7231 25.1578 38.7231 23.1396ZM35.8475 28.9915C35.8466 28.9901 35.845 28.9895 35.8435 28.9901C35.2765 29.1809 34.6955 29.2809 34.135 29.2809C33.3684 29.2809 32.6586 29.1694 32.0166 28.9508C32.0152 28.9503 32.0136 28.9508 32.0127 28.9521L31.291 30.0072C31.2898 30.0091 31.2906 30.0117 31.2927 30.0125C32.0376 30.2743 32.6586 30.8689 32.9288 31.6749C33.1554 32.348 33.1094 33.0724 32.7989 33.7145C32.4878 34.3579 31.9502 34.8391 31.2848 35.0691L30.1212 35.4721C30.1196 35.4727 30.1186 35.4744 30.1189 35.4762L30.8674 39.3071C30.8677 39.3088 30.8692 39.31 30.8708 39.31H37.9027C37.9046 39.31 37.9062 39.3084 37.9062 39.3064L37.9209 32.2921C37.9209 32.2914 37.9207 32.2907 37.9204 32.2902L35.8475 28.9915ZM42.2003 45.5815C42.2003 44.9419 41.9673 44.3992 41.4881 43.9227L38.3399 40.799C38.3392 40.7983 38.3383 40.798 38.3374 40.798H31.2063C31.2038 40.798 31.2021 40.8006 31.203 40.8029C31.9361 42.8756 34.0493 44.0385 35.3734 44.7673C35.5593 44.8696 35.735 44.9663 35.8803 45.051L38.2627 46.4032C39.2551 46.9668 39.4371 47.2619 39.408 48.2615C39.4044 48.3845 39.4003 48.5239 39.4003 48.6914L39.3868 51.8495C39.3868 51.8515 39.3883 51.8531 39.3903 51.8531H42.1967C42.1987 51.8531 42.2002 51.8515 42.2002 51.8495V45.5815H42.2003ZM44.8629 54.3549C44.2087 53.6634 43.3244 53.3412 42.9328 53.3412H39.3857C39.3837 53.3412 39.3822 53.3428 39.3822 53.3448L39.3768 55.8437C39.3768 55.8456 39.3784 55.8472 39.3803 55.8472H45.6211C45.6234 55.8472 45.625 55.8451 45.6247 55.843C45.523 55.2816 45.2681 54.7832 44.8629 54.3549ZM63.1026 63.2963V51.9073C63.1026 51.7886 63.007 51.6916 62.8903 51.6916H55.4508C53.3613 51.6916 51.6614 53.4165 51.6614 55.5368V56.5913V63.5086C51.6614 63.5106 51.663 63.5122 51.6649 63.5122H62.8902C63.007 63.5121 63.1026 63.4149 63.1026 63.2963ZM19.5084 63.5121H50.1929C50.1949 63.5121 50.1964 63.5105 50.1964 63.5085V61.1712C50.1964 61.1693 50.1949 61.1677 50.1929 61.1677H19.4558C19.0528 61.1677 18.7 60.8523 18.6897 60.4432C18.6791 60.0233 19.0108 59.6796 19.4218 59.6796H50.1929C50.1949 59.6796 50.1964 59.678 50.1964 59.676V57.3387C50.1964 57.3367 50.1949 57.3352 50.1929 57.3352H46.4043H38.6428H33.4875C33.0846 57.3352 32.7318 57.0198 32.7214 56.6106C32.7109 56.1908 33.0426 55.847 33.4535 55.847H37.9084C37.9104 55.847 37.912 55.8454 37.912 55.8435L37.9188 52.6651V52.597C37.9188 52.5965 37.9189 52.596 37.9189 52.5955C37.9189 52.5955 37.9188 52.5944 37.9188 52.5938L37.9356 48.6881C37.9356 48.5017 37.9402 48.3441 37.9439 48.2174C37.9451 48.175 37.9464 48.131 37.9473 48.0889C37.9494 47.9974 37.903 47.9122 37.8259 47.8647C37.7251 47.8025 37.6083 47.7361 37.5482 47.7021L35.8477 46.7369C35.8459 46.7359 35.8437 46.7366 35.8428 46.7385L34.6313 49.2864C34.3784 49.8128 34.0163 50.3447 33.0854 50.6701L26.5728 52.9442C26.5712 52.9447 26.5702 52.9462 26.5704 52.9479C26.6585 53.7502 26.5821 54.9157 26.1914 55.8422C26.1904 55.8445 26.1921 55.847 26.1945 55.847H29.9453C30.3483 55.847 30.7011 56.1624 30.7115 56.5715C30.722 56.9914 30.3903 57.3352 29.9793 57.3352H24.2618H23.3122H19.5083C17.8301 57.3352 16.4647 58.7206 16.4647 60.4235C16.4648 62.1266 17.8302 63.5121 19.5084 63.5121Z" fill="white"/>
<path d="M57.496 58.7354H58.9563C59.3592 58.7354 59.7121 59.0507 59.7224 59.4599C59.733 59.8797 59.4012 60.2235 58.9903 60.2235H57.5299C57.127 60.2235 56.7742 59.9081 56.7638 59.499C56.7533 59.079 57.0851 58.7354 57.496 58.7354Z" fill="white"/>
<path d="M57.4953 55.2207H58.9583C59.3612 55.2207 59.714 55.5361 59.7244 55.9452C59.7349 56.3651 59.4032 56.7088 58.9922 56.7088H57.5292C57.1263 56.7088 56.7735 56.3934 56.7631 55.9843C56.7525 55.5644 57.0843 55.2207 57.4953 55.2207Z" fill="white"/>
</svg>
