<svg width="80" height="80" viewBox="0 0 80 80" fill="none" xmlns="http://www.w3.org/2000/svg">
<path d="M0 12.8C0 8.31958 0 6.07937 0.871948 4.36808C1.63893 2.86278 2.86278 1.63893 4.36808 0.871948C6.07937 0 8.31958 0 12.8 0H48C59.201 0 64.8016 0 69.0798 2.17987C72.843 4.09734 75.9027 7.15695 77.8201 10.9202C80 15.1984 80 20.799 80 32V67.2C80 71.6804 80 73.9206 79.1281 75.6319C78.3611 77.1372 77.1372 78.3611 75.6319 79.1281C73.9206 80 71.6804 80 67.2 80H12.8C8.31958 80 6.07937 80 4.36808 79.1281C2.86278 78.3611 1.63893 77.1372 0.871948 75.6319C0 73.9206 0 71.6804 0 67.2V12.8Z" fill="#F23849"/>
<path d="M39.9966 15C39.5414 15.0086 39.2153 15.3453 39.2153 15.7782V17.3407C39.2153 17.8614 39.6061 18.1228 39.9966 18.1235C40.3871 18.1228 40.7778 17.8613 40.7778 17.3407V15.7782C40.7778 15.3453 40.4518 15.0085 39.9966 15ZM35.7714 16.2375C35.0651 16.2322 34.7239 17.089 35.2114 17.5726L36.3192 18.6743C37.0901 19.3911 38.1398 18.3111 37.427 17.5726L36.3192 16.4648C36.1722 16.3136 35.9824 16.2375 35.7714 16.2375ZM44.2218 16.2375C44.0109 16.2375 43.821 16.3136 43.674 16.4648L42.5662 17.5726C41.8534 18.3111 42.9031 19.3911 43.674 18.6743L44.7818 17.5726C45.2693 17.089 44.9279 16.232 44.2218 16.2375ZM34.772 21.2515C34.2421 21.2515 33.7768 21.5249 33.4918 21.9153L30.0891 26.5799C29.7193 27.0861 29.7754 27.7535 30.1532 28.2065C32.4896 31.0063 34.8853 33.7408 37.2699 36.4783C37.0188 36.9424 36.8716 37.4921 36.8716 38.0972V42.7847C36.8716 45.5804 36.1743 48.191 36.0995 51.8622L35.4647 51.7355C35.127 51.6682 34.7848 51.8286 34.6225 52.1323L28.3709 63.851C28.0955 64.3699 28.4686 64.9971 29.056 65H51.7153C52.035 65.0007 52.3225 64.8053 52.4417 64.5087L55.5697 56.6946C55.7504 56.2399 55.4717 55.7323 54.9914 55.6387L54.6649 55.5731C55.0514 55.1558 55.5567 54.6563 56.1297 54.122C57.2112 53.1135 58.539 51.9406 59.8315 50.6964C61.124 49.4522 62.3845 48.1362 63.3441 46.8161C64.3025 45.4976 64.9996 44.1682 64.9996 42.7878C65.0171 41.0548 64.542 37.8617 64.0704 34.9997C63.5985 32.1356 63.1182 29.6652 63.1182 29.6652C62.8609 28.3248 61.9344 27.4442 60.9164 27.2208C60.4862 27.1263 60.0451 27.134 59.627 27.2345L59.566 26.3846C59.2762 24.6824 57.9758 23.9484 56.798 24.0378C55.6203 24.1271 54.4907 25.075 54.4268 26.4655L54.1857 31.925L52.3043 28.1592C51.9352 27.4799 51.3616 27.0388 50.7296 26.8378C50.4887 26.7611 50.2389 26.7201 49.9896 26.7111C48.8165 25.0506 47.5679 23.3684 46.3626 21.7123C46.2232 21.51 45.7358 21.2515 45.2166 21.2515H34.772ZM37.0806 22.814L35.512 26.7187H31.9171L34.7659 22.8247L37.0806 22.814ZM38.7622 22.814H41.231L42.7905 26.7187H37.1981L38.7622 22.814ZM42.911 22.814H45.2166H45.2228C45.2284 22.8218 45.2338 22.8293 45.2397 22.8369L48.0731 26.7187H44.472L42.911 22.814ZM56.9628 25.5911C57.3619 25.5911 57.855 25.7712 58.0203 26.6211L58.7466 37.3709C58.7758 37.803 59.1523 38.1287 59.5843 38.0972C60.0165 38.0681 60.3421 37.693 60.3106 37.261L59.7369 28.8504C59.9983 28.7291 60.3041 28.6875 60.5807 28.7482C61.0267 28.846 61.4232 29.1181 61.5847 29.9597C61.5847 29.9597 62.0567 32.4145 62.5247 35.2545C62.9926 38.0946 63.4503 41.3767 63.4356 42.7786C63.4356 43.601 62.946 44.7086 62.0806 45.899C61.2153 47.0895 60.0078 48.3516 58.7466 49.5657C57.4854 50.7799 56.1726 51.9504 55.0677 52.9806C54.1645 53.8229 53.4041 54.5384 52.8979 55.2206L37.6513 52.1719C37.6938 48.5396 38.4341 45.9102 38.4341 42.7847V38.0972C38.4341 37.1462 38.9873 36.662 39.4549 36.5576C39.882 36.4623 40.4816 36.6043 40.8251 37.58C41.9198 40.4369 42.9826 43.2772 43.941 46.1523C44.0766 46.5644 44.5233 46.787 44.9343 46.6483C45.3411 46.5102 45.5596 46.0701 45.4241 45.6625C45.3457 45.4271 45.2643 45.1924 45.1846 44.9576C45.489 44.7863 46.9339 43.9558 48.3767 42.8015C49.1836 42.156 49.9749 41.4259 50.545 40.6164C51.1128 39.8102 51.5049 38.8409 51.1798 37.8577L48.6819 30.0803C48.4006 29.0304 48.9534 28.5373 49.3807 28.3682C49.8819 28.17 50.5767 28.2586 50.9249 28.8992L56.4868 40.0122C56.4942 40.0259 56.5018 40.0386 56.5098 40.0519C57.0068 40.9125 57.1903 42.1103 57.1903 42.1103C57.2484 42.5392 57.6436 42.8385 58.0723 42.7786C58.5012 42.7206 58.8021 42.3253 58.7422 41.8967C58.7422 41.8967 58.5693 40.4983 57.8587 39.2676L55.6262 34.8029L55.9848 26.5372C56.0137 25.9564 56.4442 25.6294 56.9628 25.5911L56.9628 25.5911ZM32.2711 28.2812H35.5731L37.8863 34.8074C35.9983 32.6398 34.1198 30.4715 32.2711 28.2812ZM37.2332 28.2812H42.7554L40.3521 35.0851C40.1061 35.0107 39.8537 34.9741 39.6029 34.9768L37.2332 28.2812ZM44.4094 28.2812H47.3208C47.2076 28.5136 47.1281 28.8098 47.0874 29.0579C45.4389 30.9998 43.7754 32.9066 42.0962 34.8303L44.4094 28.2812ZM47.3803 31.1224L49.6951 38.3398C49.8037 38.6587 49.6974 39.1121 49.2709 39.7177C48.8443 40.3233 48.1426 40.9927 47.4017 41.5854C46.3407 42.4342 45.2217 43.1253 44.6658 43.4531C43.9109 41.3069 43.1121 39.1812 42.2854 37.0337C43.9778 35.0498 45.6883 33.0975 47.3803 31.1224ZM21.242 32.186C20.8888 32.1853 20.5792 32.4218 20.4867 32.7628C19.8281 35.1757 18.2332 37.0011 16.289 37.7051C15.5995 37.9528 15.5995 38.9283 16.289 39.176C18.2339 39.8773 19.8319 41.6985 20.4928 44.1107C20.7053 44.8726 21.7848 44.8726 21.9973 44.1107C22.656 41.6978 24.2524 39.8739 26.1965 39.1699C26.8861 38.9222 26.8861 37.9467 26.1965 37.699C24.2516 36.9977 22.6536 35.175 21.9928 32.7628C21.9008 32.4239 21.5931 32.1879 21.242 32.186ZM21.242 35.1263C22.0263 36.5784 22.9077 37.6001 24.1915 38.4375C22.8384 39.318 21.9869 40.3357 21.2451 41.7578C20.5568 40.2856 19.1563 38.9345 18.2986 38.4436C19.5487 37.6321 20.4623 36.6135 21.242 35.1263ZM29.056 43.125C28.7082 43.1255 28.4031 43.3553 28.3068 43.6896C27.8909 45.1588 26.8887 46.2605 25.6778 46.6833C24.9773 46.9263 24.9773 47.916 25.6778 48.1589C26.8892 48.5801 27.8895 49.6838 28.3068 51.1526C28.5223 51.9137 29.6034 51.9094 29.8129 51.1464C30.2288 49.6772 31.231 48.5755 32.442 48.1527C33.1315 47.9049 33.1315 46.931 32.442 46.6832C31.2305 46.2624 30.2241 45.1584 29.8068 43.6896C29.7105 43.3553 29.4039 43.1255 29.056 43.125ZM29.056 45.8151C29.3718 46.3072 29.7862 46.8606 30.5316 47.4219C29.9593 47.8594 29.4695 48.3732 29.056 49.0271C28.5841 48.252 28.0503 47.7711 27.5775 47.4219C28.2143 47.0071 28.9342 46.0554 29.056 45.8151ZM19.2935 47.814C18.9385 47.8141 18.6285 48.0522 18.5382 48.3954C18.054 50.2536 16.8797 51.6374 15.4986 52.1612C14.8308 52.4203 14.8348 53.3662 15.5047 53.62C16.8862 54.1419 18.0524 55.5236 18.5382 57.3813C18.7429 58.1573 19.8441 58.1573 20.0488 57.3813C20.533 55.5231 21.7073 54.1393 23.0883 53.6154C23.7572 53.359 23.7572 52.4116 23.0883 52.1551C21.7068 51.6333 20.5346 50.253 20.0488 48.3954C19.9585 48.0522 19.6484 47.8141 19.2935 47.814ZM19.2935 50.6949C19.8393 51.6198 20.3319 52.2414 21.1917 52.8876C20.2523 53.5671 19.7501 54.2986 19.2935 55.0864C18.7275 54.0155 17.8817 53.235 17.3968 52.8876C18.1633 52.3386 18.7685 51.5873 19.2935 50.6949ZM35.7241 53.3789L53.7631 56.9891L51.1859 63.436H30.3607L35.7241 53.3789Z" fill="white"/>
</svg>
