<svg width="70" height="30" viewBox="0 0 70 30" fill="none" xmlns="http://www.w3.org/2000/svg">
<rect width="70" height="30" rx="5" fill="#343436"/>
<path d="M12.0218 17.872C12.5658 17.872 12.9618 17.78 13.2098 17.596C13.4578 17.412 13.5818 17.152 13.5818 16.816C13.5818 16.616 13.5378 16.444 13.4498 16.3C13.3698 16.156 13.2498 16.028 13.0898 15.916C12.9378 15.796 12.7498 15.688 12.5258 15.592C12.3018 15.488 12.0458 15.388 11.7578 15.292C11.4698 15.188 11.1898 15.076 10.9178 14.956C10.6538 14.828 10.4178 14.672 10.2098 14.488C10.0098 14.304 9.84577 14.084 9.71777 13.828C9.59777 13.572 9.53777 13.264 9.53777 12.904C9.53777 12.152 9.79777 11.564 10.3178 11.14C10.8378 10.708 11.5458 10.492 12.4418 10.492C12.9618 10.492 13.4218 10.552 13.8218 10.672C14.2298 10.784 14.5498 10.908 14.7818 11.044L14.3138 12.268C14.0418 12.116 13.7418 12 13.4138 11.92C13.0938 11.84 12.7618 11.8 12.4178 11.8C12.0098 11.8 11.6898 11.884 11.4578 12.052C11.2338 12.22 11.1218 12.456 11.1218 12.76C11.1218 12.944 11.1578 13.104 11.2298 13.24C11.3098 13.368 11.4178 13.484 11.5538 13.588C11.6978 13.692 11.8618 13.788 12.0458 13.876C12.2378 13.964 12.4458 14.048 12.6698 14.128C13.0618 14.272 13.4098 14.42 13.7138 14.572C14.0258 14.716 14.2858 14.892 14.4938 15.1C14.7098 15.3 14.8738 15.54 14.9858 15.82C15.0978 16.092 15.1538 16.424 15.1538 16.816C15.1538 17.568 14.8858 18.152 14.3498 18.568C13.8218 18.976 13.0458 19.18 12.0218 19.18C11.6778 19.18 11.3618 19.156 11.0738 19.108C10.7938 19.068 10.5418 19.016 10.3178 18.952C10.1018 18.888 9.91377 18.824 9.75377 18.76C9.59377 18.688 9.46577 18.624 9.36977 18.568L9.81377 17.332C10.0298 17.452 10.3218 17.572 10.6898 17.692C11.0578 17.812 11.5018 17.872 12.0218 17.872ZM18.6222 17.98C19.0702 17.98 19.4102 17.956 19.6422 17.908V16.3C19.5622 16.276 19.4462 16.252 19.2942 16.228C19.1422 16.204 18.9742 16.192 18.7902 16.192C18.6302 16.192 18.4662 16.204 18.2982 16.228C18.1382 16.252 17.9902 16.296 17.8542 16.36C17.7262 16.424 17.6222 16.516 17.5422 16.636C17.4622 16.748 17.4222 16.892 17.4222 17.068C17.4222 17.412 17.5302 17.652 17.7462 17.788C17.9622 17.916 18.2542 17.98 18.6222 17.98ZM18.5022 12.568C18.9822 12.568 19.3862 12.628 19.7142 12.748C20.0422 12.868 20.3022 13.036 20.4942 13.252C20.6942 13.468 20.8342 13.732 20.9142 14.044C21.0022 14.348 21.0462 14.684 21.0462 15.052V18.856C20.8222 18.904 20.4822 18.96 20.0262 19.024C19.5782 19.096 19.0702 19.132 18.5022 19.132C18.1262 19.132 17.7822 19.096 17.4702 19.024C17.1582 18.952 16.8902 18.836 16.6662 18.676C16.4502 18.516 16.2782 18.308 16.1502 18.052C16.0302 17.796 15.9702 17.48 15.9702 17.104C15.9702 16.744 16.0382 16.44 16.1742 16.192C16.3182 15.944 16.5102 15.744 16.7502 15.592C16.9902 15.432 17.2662 15.32 17.5782 15.256C17.8982 15.184 18.2302 15.148 18.5742 15.148C18.7342 15.148 18.9022 15.16 19.0782 15.184C19.2542 15.2 19.4422 15.232 19.6422 15.28V15.04C19.6422 14.872 19.6222 14.712 19.5822 14.56C19.5422 14.408 19.4702 14.276 19.3662 14.164C19.2702 14.044 19.1382 13.952 18.9702 13.888C18.8102 13.824 18.6062 13.792 18.3582 13.792C18.0222 13.792 17.7142 13.816 17.4342 13.864C17.1542 13.912 16.9262 13.968 16.7502 14.032L16.5702 12.856C16.7542 12.792 17.0222 12.728 17.3742 12.664C17.7262 12.6 18.1022 12.568 18.5022 12.568ZM24.28 19C23.88 18.176 23.468 17.232 23.044 16.168C22.628 15.096 22.248 13.948 21.904 12.724H23.452C23.54 13.076 23.64 13.456 23.752 13.864C23.872 14.264 23.996 14.668 24.124 15.076C24.26 15.476 24.396 15.868 24.532 16.252C24.676 16.628 24.808 16.968 24.928 17.272C25.048 16.968 25.176 16.628 25.312 16.252C25.448 15.868 25.58 15.476 25.708 15.076C25.844 14.668 25.972 14.264 26.092 13.864C26.212 13.456 26.316 13.076 26.404 12.724H27.904C27.56 13.948 27.176 15.096 26.752 16.168C26.336 17.232 25.928 18.176 25.528 19H24.28ZM28.4998 15.892C28.4998 15.34 28.5798 14.856 28.7398 14.44C28.9078 14.024 29.1278 13.68 29.3998 13.408C29.6718 13.128 29.9838 12.92 30.3358 12.784C30.6878 12.64 31.0478 12.568 31.4158 12.568C32.2798 12.568 32.9518 12.836 33.4318 13.372C33.9198 13.908 34.1638 14.708 34.1638 15.772C34.1638 15.852 34.1598 15.944 34.1518 16.048C34.1518 16.144 34.1478 16.232 34.1398 16.312H29.9998C30.0398 16.816 30.2158 17.208 30.5278 17.488C30.8478 17.76 31.3078 17.896 31.9078 17.896C32.2598 17.896 32.5798 17.864 32.8678 17.8C33.1638 17.736 33.3958 17.668 33.5638 17.596L33.7558 18.784C33.6758 18.824 33.5638 18.868 33.4198 18.916C33.2838 18.956 33.1238 18.992 32.9398 19.024C32.7638 19.064 32.5718 19.096 32.3638 19.12C32.1558 19.144 31.9438 19.156 31.7278 19.156C31.1758 19.156 30.6958 19.076 30.2878 18.916C29.8798 18.748 29.5438 18.52 29.2798 18.232C29.0158 17.936 28.8198 17.592 28.6918 17.2C28.5638 16.8 28.4998 16.364 28.4998 15.892ZM32.7118 15.244C32.7118 15.044 32.6838 14.856 32.6278 14.68C32.5718 14.496 32.4878 14.34 32.3758 14.212C32.2718 14.076 32.1398 13.972 31.9798 13.9C31.8278 13.82 31.6438 13.78 31.4278 13.78C31.2038 13.78 31.0078 13.824 30.8398 13.912C30.6718 13.992 30.5278 14.1 30.4078 14.236C30.2958 14.372 30.2078 14.528 30.1438 14.704C30.0798 14.88 30.0358 15.06 30.0118 15.244H32.7118ZM43.3521 12.844C43.3521 13.132 43.2921 13.416 43.1721 13.696C43.0521 13.968 42.8961 14.236 42.7041 14.5C42.5201 14.756 42.3081 15.008 42.0681 15.256C41.8281 15.496 41.5881 15.732 41.3481 15.964C41.2201 16.084 41.0761 16.228 40.9161 16.396C40.7561 16.564 40.6041 16.732 40.4601 16.9C40.3161 17.068 40.1921 17.232 40.0881 17.392C39.9841 17.544 39.9281 17.672 39.9201 17.776H43.6161V19H38.3241C38.3161 18.936 38.3121 18.86 38.3121 18.772C38.3121 18.676 38.3121 18.604 38.3121 18.556C38.3121 18.172 38.3721 17.82 38.4921 17.5C38.6201 17.172 38.7841 16.868 38.9841 16.588C39.1841 16.308 39.4081 16.044 39.6561 15.796C39.9041 15.548 40.1521 15.304 40.4001 15.064C40.5921 14.88 40.7761 14.7 40.9521 14.524C41.1281 14.348 41.2801 14.176 41.4081 14.008C41.5441 13.832 41.6521 13.656 41.7321 13.48C41.8121 13.296 41.8521 13.108 41.8521 12.916C41.8521 12.5 41.7321 12.204 41.4921 12.028C41.2521 11.852 40.9601 11.764 40.6161 11.764C40.3921 11.764 40.1841 11.796 39.9921 11.86C39.8001 11.924 39.6281 12 39.4761 12.088C39.3321 12.176 39.2041 12.268 39.0921 12.364C38.9801 12.452 38.8961 12.524 38.8401 12.58L38.1201 11.56C38.4561 11.24 38.8481 10.984 39.2961 10.792C39.7521 10.592 40.2401 10.492 40.7601 10.492C41.6481 10.492 42.3001 10.704 42.7161 11.128C43.1401 11.544 43.3521 12.116 43.3521 12.844ZM48.9964 16.624C48.9964 16.36 48.9444 16.124 48.8404 15.916C48.7364 15.708 48.5524 15.532 48.2884 15.388C48.0324 15.244 47.6844 15.136 47.2444 15.064C46.8124 14.992 46.2644 14.956 45.6004 14.956C45.6884 14.188 45.7564 13.46 45.8044 12.772C45.8524 12.076 45.8924 11.38 45.9244 10.684H50.1724V11.908H47.1604C47.1524 12.044 47.1404 12.2 47.1244 12.376C47.1164 12.544 47.1044 12.716 47.0884 12.892C47.0804 13.068 47.0684 13.236 47.0524 13.396C47.0364 13.556 47.0204 13.692 47.0044 13.804C48.1884 13.868 49.0604 14.14 49.6204 14.62C50.1884 15.092 50.4724 15.74 50.4724 16.564C50.4724 16.94 50.4084 17.288 50.2804 17.608C50.1524 17.928 49.9564 18.204 49.6924 18.436C49.4284 18.668 49.0964 18.852 48.6964 18.988C48.2964 19.116 47.8284 19.18 47.2924 19.18C47.0764 19.18 46.8564 19.164 46.6324 19.132C46.4084 19.1 46.1924 19.06 45.9844 19.012C45.7844 18.972 45.6044 18.928 45.4444 18.88C45.2844 18.832 45.1644 18.788 45.0844 18.748L45.3604 17.524C45.5284 17.604 45.7684 17.692 46.0804 17.788C46.4004 17.876 46.7884 17.92 47.2444 17.92C47.5564 17.92 47.8244 17.888 48.0484 17.824C48.2724 17.752 48.4524 17.656 48.5884 17.536C48.7324 17.416 48.8364 17.28 48.9004 17.128C48.9644 16.968 48.9964 16.8 48.9964 16.624ZM55.8167 12.772C55.8167 13.5 55.6287 14.06 55.2527 14.452C54.8847 14.844 54.4007 15.04 53.8007 15.04C53.5047 15.04 53.2327 14.992 52.9847 14.896C52.7367 14.792 52.5247 14.644 52.3487 14.452C52.1727 14.26 52.0327 14.024 51.9287 13.744C51.8327 13.456 51.7847 13.132 51.7847 12.772C51.7847 12.036 51.9687 11.476 52.3367 11.092C52.7127 10.7 53.2007 10.504 53.8007 10.504C54.4007 10.504 54.8847 10.7 55.2527 11.092C55.6287 11.476 55.8167 12.036 55.8167 12.772ZM54.6767 12.772C54.6767 12.348 54.5967 12.032 54.4367 11.824C54.2847 11.608 54.0727 11.5 53.8007 11.5C53.5287 11.5 53.3167 11.608 53.1647 11.824C53.0127 12.032 52.9367 12.348 52.9367 12.772C52.9367 13.196 53.0127 13.516 53.1647 13.732C53.3167 13.94 53.5287 14.044 53.8007 14.044C54.0727 14.044 54.2847 13.94 54.4367 13.732C54.5967 13.516 54.6767 13.196 54.6767 12.772ZM58.2527 10.684H59.6327L54.9407 19H53.5607L58.2527 10.684ZM61.4207 16.924C61.4207 17.652 61.2327 18.212 60.8567 18.604C60.4887 18.996 60.0047 19.192 59.4047 19.192C59.1087 19.192 58.8367 19.14 58.5887 19.036C58.3407 18.94 58.1287 18.796 57.9527 18.604C57.7767 18.412 57.6367 18.176 57.5327 17.896C57.4367 17.608 57.3887 17.284 57.3887 16.924C57.3887 16.188 57.5727 15.628 57.9407 15.244C58.3167 14.852 58.8047 14.656 59.4047 14.656C60.0047 14.656 60.4887 14.852 60.8567 15.244C61.2327 15.628 61.4207 16.188 61.4207 16.924ZM60.2807 16.924C60.2807 16.5 60.2007 16.184 60.0407 15.976C59.8887 15.76 59.6767 15.652 59.4047 15.652C59.1327 15.652 58.9207 15.76 58.7687 15.976C58.6167 16.184 58.5407 16.5 58.5407 16.924C58.5407 17.348 58.6167 17.668 58.7687 17.884C58.9207 18.092 59.1327 18.196 59.4047 18.196C59.6767 18.196 59.8887 18.092 60.0407 17.884C60.2007 17.668 60.2807 17.348 60.2807 16.924Z" fill="#FFE24C"/>
</svg>
