<svg width="48" height="48" viewBox="0 0 48 48" fill="none" xmlns="http://www.w3.org/2000/svg">
<path opacity="0.099123" d="M24 48C37.2548 48 48 37.2548 48 24C48 10.7452 37.2548 0 24 0C10.7452 0 0 10.7452 0 24C0 37.2548 10.7452 48 24 48Z" fill="white"/>
<path fill-rule="evenodd" clip-rule="evenodd" d="M24 16C21.8267 16 21.556 16.0093 20.7013 16.0493C17.7947 16.1827 16.1813 17.7947 16.048 20.7013C16.0093 21.556 16 21.828 16 24C16 26.1733 16.0093 26.4453 16.048 27.2987C16.1813 30.204 17.7947 31.8187 20.7013 31.952C21.556 31.9907 21.8267 32 24 32C26.1733 32 26.4453 31.9907 27.3 31.952C30.2013 31.8187 31.8213 30.2067 31.952 27.2987C31.9907 26.4453 32 26.1733 32 24C32 21.828 31.9907 21.556 31.952 20.7013C31.8213 17.7987 30.2067 16.1813 27.3 16.0493C26.4453 16.0093 26.1733 16 24 16ZM24.0001 17.4424C26.1361 17.4424 26.3894 17.4504 27.2334 17.489C29.4027 17.5877 30.4134 18.6157 30.5134 20.7677C30.5507 21.6117 30.5587 21.8637 30.5587 23.9997C30.5587 26.1357 30.5507 26.389 30.5134 27.2317C30.4134 29.3824 29.4041 30.413 27.2334 30.5117C26.3894 30.549 26.1374 30.5584 24.0001 30.5584C21.8641 30.5584 21.6107 30.5504 20.7681 30.5117C18.5947 30.4117 17.5881 29.3797 17.4881 27.2317C17.4507 26.389 17.4414 26.1357 17.4414 23.9997C17.4414 21.8637 17.4507 21.6104 17.4881 20.7677C17.5867 18.6144 18.5974 17.5864 20.7681 17.4877C21.6107 17.449 21.8641 17.4424 24.0001 17.4424ZM19.8926 23.9996C19.8926 21.7303 21.7326 19.8916 24.0006 19.8916C26.2686 19.8916 28.1086 21.7316 28.1086 23.9996C28.1086 26.2689 26.2686 28.1076 24.0006 28.1076C21.7326 28.1076 19.8926 26.2689 19.8926 23.9996ZM24.0007 26.6663C22.5273 26.6663 21.334 25.473 21.334 23.9997C21.334 22.5277 22.5273 21.333 24.0007 21.333C25.4727 21.333 26.6687 22.5263 26.6687 23.9997C26.6687 25.473 25.4727 26.6663 24.0007 26.6663ZM27.3086 19.7305C27.3086 19.1998 27.7393 18.7705 28.2686 18.7705C28.8006 18.7705 29.2299 19.1998 29.2299 19.7305C29.2299 20.2612 28.7993 20.6905 28.2686 20.6905C27.7379 20.6905 27.3086 20.2598 27.3086 19.7305Z" fill="white"/>
</svg>
