<svg width="113" height="21" viewBox="0 0 113 21" fill="none" xmlns="http://www.w3.org/2000/svg">
<rect width="113" height="21" rx="10.5" fill="#F23849"/>
<path d="M23.4214 13.572C23.6854 13.572 23.9014 13.552 24.0694 13.512C24.2454 13.464 24.3854 13.404 24.4894 13.332C24.5934 13.252 24.6654 13.16 24.7054 13.056C24.7454 12.952 24.7654 12.836 24.7654 12.708C24.7654 12.436 24.6374 12.212 24.3814 12.036C24.1254 11.852 23.6854 11.656 23.0614 11.448C22.7894 11.352 22.5174 11.244 22.2454 11.124C21.9734 10.996 21.7294 10.84 21.5134 10.656C21.2974 10.464 21.1214 10.236 20.9854 9.972C20.8494 9.7 20.7814 9.372 20.7814 8.988C20.7814 8.604 20.8534 8.26 20.9974 7.956C21.1414 7.644 21.3454 7.38 21.6094 7.164C21.8734 6.948 22.1934 6.784 22.5694 6.672C22.9454 6.552 23.3694 6.492 23.8414 6.492C24.4014 6.492 24.8854 6.552 25.2934 6.672C25.7014 6.792 26.0374 6.924 26.3014 7.068L25.7614 8.544C25.5294 8.424 25.2694 8.32 24.9814 8.232C24.7014 8.136 24.3614 8.088 23.9614 8.088C23.5134 8.088 23.1894 8.152 22.9894 8.28C22.7974 8.4 22.7014 8.588 22.7014 8.844C22.7014 8.996 22.7374 9.124 22.8094 9.228C22.8814 9.332 22.9814 9.428 23.1094 9.516C23.2454 9.596 23.3974 9.672 23.5654 9.744C23.7414 9.808 23.9334 9.876 24.1414 9.948C24.5734 10.108 24.9494 10.268 25.2694 10.428C25.5894 10.58 25.8534 10.76 26.0614 10.968C26.2774 11.176 26.4374 11.42 26.5414 11.7C26.6454 11.98 26.6974 12.32 26.6974 12.72C26.6974 13.496 26.4254 14.1 25.8814 14.532C25.3374 14.956 24.5174 15.168 23.4214 15.168C23.0534 15.168 22.7214 15.144 22.4254 15.096C22.1294 15.056 21.8654 15.004 21.6334 14.94C21.4094 14.876 21.2134 14.808 21.0454 14.736C20.8854 14.664 20.7494 14.596 20.6374 14.532L21.1654 13.044C21.4134 13.18 21.7174 13.304 22.0774 13.416C22.4454 13.52 22.8934 13.572 23.4214 13.572ZM31.3897 15.168C30.8057 15.168 30.3017 15.088 29.8777 14.928C29.4537 14.76 29.1017 14.532 28.8217 14.244C28.5497 13.948 28.3457 13.6 28.2097 13.2C28.0817 12.792 28.0177 12.344 28.0177 11.856V6.684H29.8897V11.7C29.8897 12.036 29.9257 12.324 29.9977 12.564C30.0777 12.796 30.1817 12.988 30.3097 13.14C30.4457 13.284 30.6057 13.388 30.7897 13.452C30.9817 13.516 31.1897 13.548 31.4137 13.548C31.8697 13.548 32.2377 13.408 32.5177 13.128C32.8057 12.848 32.9497 12.372 32.9497 11.7V6.684H34.8217V11.856C34.8217 12.344 34.7537 12.792 34.6177 13.2C34.4817 13.608 34.2737 13.96 33.9937 14.256C33.7137 14.544 33.3577 14.768 32.9257 14.928C32.4937 15.088 31.9817 15.168 31.3897 15.168ZM42.2021 15C41.6661 14.048 41.0861 13.108 40.4621 12.18C39.8381 11.252 39.1741 10.376 38.4701 9.552V15H36.6221V6.684H38.1461C38.4101 6.948 38.7021 7.272 39.0221 7.656C39.3421 8.04 39.6661 8.452 39.9941 8.892C40.3301 9.324 40.6621 9.776 40.9901 10.248C41.3181 10.712 41.6261 11.16 41.9141 11.592V6.684H43.7741V15H42.2021ZM47.5644 13.476C47.6524 13.484 47.7524 13.492 47.8644 13.5C47.9844 13.5 48.1244 13.5 48.2844 13.5C49.2204 13.5 49.9124 13.264 50.3604 12.792C50.8164 12.32 51.0444 11.668 51.0444 10.836C51.0444 9.964 50.8284 9.304 50.3964 8.856C49.9644 8.408 49.2804 8.184 48.3444 8.184C48.2164 8.184 48.0844 8.188 47.9484 8.196C47.8124 8.196 47.6844 8.204 47.5644 8.22V13.476ZM52.9764 10.836C52.9764 11.556 52.8644 12.184 52.6404 12.72C52.4164 13.256 52.0964 13.7 51.6804 14.052C51.2724 14.404 50.7724 14.668 50.1804 14.844C49.5884 15.02 48.9244 15.108 48.1884 15.108C47.8524 15.108 47.4604 15.092 47.0124 15.06C46.5644 15.036 46.1244 14.98 45.6924 14.892V6.792C46.1244 6.712 46.5724 6.66 47.0364 6.636C47.5084 6.604 47.9124 6.588 48.2484 6.588C48.9604 6.588 49.6044 6.668 50.1804 6.828C50.7644 6.988 51.2644 7.24 51.6804 7.584C52.0964 7.928 52.4164 8.368 52.6404 8.904C52.8644 9.44 52.9764 10.084 52.9764 10.836ZM59.8034 15C59.7154 14.712 59.6154 14.416 59.5034 14.112C59.3994 13.808 59.2954 13.504 59.1914 13.2H55.9514C55.8474 13.504 55.7394 13.808 55.6274 14.112C55.5234 14.416 55.4274 14.712 55.3394 15H53.3954C53.7074 14.104 54.0034 13.276 54.2834 12.516C54.5634 11.756 54.8354 11.04 55.0994 10.368C55.3714 9.696 55.6354 9.06 55.8914 8.46C56.1554 7.852 56.4274 7.26 56.7074 6.684H58.4954C58.7674 7.26 59.0354 7.852 59.2994 8.46C59.5634 9.06 59.8274 9.696 60.0914 10.368C60.3634 11.04 60.6394 11.756 60.9194 12.516C61.1994 13.276 61.4954 14.104 61.8074 15H59.8034ZM57.5594 8.568C57.5194 8.688 57.4594 8.852 57.3794 9.06C57.2994 9.268 57.2074 9.508 57.1034 9.78C56.9994 10.052 56.8834 10.352 56.7554 10.68C56.6354 11.008 56.5114 11.352 56.3834 11.712H58.7474C58.6194 11.352 58.4954 11.008 58.3754 10.68C58.2554 10.352 58.1394 10.052 58.0274 9.78C57.9234 9.508 57.8314 9.268 57.7514 9.06C57.6714 8.852 57.6074 8.688 57.5594 8.568ZM64.7365 10.104C65.0725 9.536 65.3925 8.968 65.6965 8.4C66.0005 7.832 66.2805 7.26 66.5365 6.684H68.6005C68.1445 7.58 67.6725 8.448 67.1845 9.288C66.6965 10.128 66.1805 10.972 65.6365 11.82V15H63.7645V11.844C63.2205 10.996 62.7005 10.148 62.2045 9.3C61.7165 8.452 61.2445 7.58 60.7885 6.684H62.9605C63.2165 7.26 63.4925 7.832 63.7885 8.4C64.0845 8.968 64.4005 9.536 64.7365 10.104ZM74.0769 10.836C74.0769 11.244 74.1249 11.612 74.2209 11.94C74.3249 12.268 74.4689 12.552 74.6529 12.792C74.8449 13.024 75.0769 13.204 75.3489 13.332C75.6209 13.46 75.9329 13.524 76.2849 13.524C76.6289 13.524 76.9369 13.46 77.2089 13.332C77.4889 13.204 77.7209 13.024 77.9049 12.792C78.0969 12.552 78.2409 12.268 78.3369 11.94C78.4409 11.612 78.4929 11.244 78.4929 10.836C78.4929 10.428 78.4409 10.06 78.3369 9.732C78.2409 9.396 78.0969 9.112 77.9049 8.88C77.7209 8.64 77.4889 8.456 77.2089 8.328C76.9369 8.2 76.6289 8.136 76.2849 8.136C75.9329 8.136 75.6209 8.204 75.3489 8.34C75.0769 8.468 74.8449 8.652 74.6529 8.892C74.4689 9.124 74.3249 9.408 74.2209 9.744C74.1249 10.072 74.0769 10.436 74.0769 10.836ZM80.4249 10.836C80.4249 11.548 80.3169 12.176 80.1009 12.72C79.8929 13.256 79.6049 13.708 79.2369 14.076C78.8689 14.436 78.4289 14.708 77.9169 14.892C77.4129 15.076 76.8689 15.168 76.2849 15.168C75.7169 15.168 75.1809 15.076 74.6769 14.892C74.1729 14.708 73.7329 14.436 73.3569 14.076C72.9809 13.708 72.6849 13.256 72.4689 12.72C72.2529 12.176 72.1449 11.548 72.1449 10.836C72.1449 10.124 72.2569 9.5 72.4809 8.964C72.7049 8.42 73.0049 7.964 73.3809 7.596C73.7649 7.228 74.2049 6.952 74.7009 6.768C75.2049 6.584 75.7329 6.492 76.2849 6.492C76.8529 6.492 77.3889 6.584 77.8929 6.768C78.3969 6.952 78.8369 7.228 79.2129 7.596C79.5889 7.964 79.8849 8.42 80.1009 8.964C80.3169 9.5 80.4249 10.124 80.4249 10.836ZM81.9854 15V6.684H87.5534V8.256H83.8574V9.996H87.1454V11.568H83.8574V15H81.9854ZM88.876 15V6.684H94.444V8.256H90.748V9.996H94.036V11.568H90.748V15H88.876Z" fill="white"/>
</svg>
